<svg version="1.1" id="Layer_1" xmlns="http://www.w3.org/2000/svg" xmlns:xlink="http://www.w3.org/1999/xlink" x="0px" y="0px"
	 width="100%" viewBox="0 0 2000 2000" enable-background="new 0 0 2000 2000" xml:space="preserve">
<path fill="#000000" opacity="1.000000" stroke="none" 
	d="
M1991.002441,2001.000000 
	C1327.335205,2001.000000 664.168701,2001.000000 1.001638,2001.000000 
	C1.001092,1334.334229 1.001092,667.668457 1.000546,1.001995 
	C667.665588,1.001330 1334.331177,1.001330 2000.997559,1.000665 
	C2000.998413,667.665466 2000.998413,1334.330933 2000.999268,2000.998169 
	C1997.834351,2001.000000 1994.668823,2001.000000 1991.002441,2001.000000 
M954.633240,1208.768311 
	C945.662964,1192.647583 936.692688,1176.526855 927.334778,1159.709595 
	C926.106506,1161.547485 925.528137,1162.321655 925.044067,1163.150879 
	C916.437683,1177.893188 907.785767,1192.609497 899.260437,1207.398560 
	C889.501526,1224.327637 879.856201,1241.322144 870.163574,1258.289429 
	C859.147339,1277.573853 848.186584,1296.890259 837.102051,1316.135254 
	C827.823669,1332.244507 818.318481,1348.223145 809.068970,1364.348755 
	C801.297119,1377.898193 793.984741,1391.717407 785.949707,1405.105713 
	C783.710449,1408.836792 781.708984,1411.942505 781.948669,1416.607056 
	C782.408569,1425.560425 782.082458,1434.554199 782.082458,1443.343384 
	C790.398743,1442.542114 798.391357,1441.163940 806.391113,1441.121094 
	C826.364929,1441.014648 846.407166,1439.843384 866.215454,1443.952759 
	C877.750366,1446.345947 889.127991,1448.804199 896.802551,1459.050537 
	C906.489075,1454.256592 916.064941,1449.417236 925.748413,1444.803589 
	C927.874573,1443.790649 930.381653,1443.084717 932.716309,1443.076416 
	C964.207947,1442.964600 995.703979,1443.278198 1027.189941,1442.842163 
	C1037.366577,1442.701294 1046.744751,1443.907104 1055.264771,1449.682129 
	C1061.104614,1453.640381 1066.962769,1455.211792 1073.000122,1448.642212 
	C1073.000122,1437.938965 1073.018677,1426.283325 1072.961792,1414.628296 
	C1072.957642,1413.784668 1072.596069,1412.793335 1072.072754,1412.129395 
	C1070.421631,1410.035034 1068.236206,1408.281494 1066.929077,1406.009521 
	C1058.526123,1391.403931 1050.365723,1376.659058 1042.000244,1362.031616 
	C1034.777100,1349.401855 1027.312256,1336.910522 1020.090027,1324.280396 
	C1010.071838,1306.760986 1000.186829,1289.165405 990.233459,1271.608887 
	C978.480957,1250.879028 966.716492,1230.155884 954.633240,1208.768311 
M1300.770752,1261.291748 
	C1302.112183,1260.094727 1303.453735,1258.897827 1303.944580,1258.459839 
	C1300.134399,1254.281738 1296.295898,1249.902832 1292.242310,1245.733032 
	C1291.058228,1244.515137 1289.265381,1243.122192 1287.743774,1243.113281 
	C1260.943237,1242.954956 1234.141357,1242.966309 1207.340332,1243.085449 
	C1205.848999,1243.092163 1203.815796,1243.964600 1202.997681,1245.117432 
	C1201.624268,1247.052734 1200.572266,1248.433472 1197.840332,1248.178833 
	C1197.001587,1248.100586 1195.066895,1250.203735 1195.169556,1251.139648 
	C1195.887085,1257.680420 1202.298584,1262.999390 1209.000977,1263.000122 
	C1237.966553,1263.003418 1266.932251,1263.016479 1295.897705,1262.962646 
	C1297.569336,1262.959473 1299.239868,1262.394409 1300.770752,1261.291748 
z"/>
<path fill="#5395FE" opacity="1.000000" stroke="none" 
	d="
M954.795166,1209.099121 
	C966.716492,1230.155884 978.480957,1250.879028 990.233459,1271.608887 
	C1000.186829,1289.165405 1010.071838,1306.760986 1020.090027,1324.280396 
	C1027.312256,1336.910522 1034.777100,1349.401855 1042.000244,1362.031616 
	C1050.365723,1376.659058 1058.526123,1391.403931 1066.929077,1406.009521 
	C1068.236206,1408.281494 1070.421631,1410.035034 1072.072754,1412.129395 
	C1072.596069,1412.793335 1072.957642,1413.784668 1072.961792,1414.628296 
	C1073.018677,1426.283325 1073.000122,1437.938965 1073.000122,1448.642212 
	C1066.962769,1455.211792 1061.104614,1453.640381 1055.264771,1449.682129 
	C1046.744751,1443.907104 1037.366577,1442.701294 1027.189941,1442.842163 
	C995.703979,1443.278198 964.207947,1442.964600 932.716309,1443.076416 
	C930.381653,1443.084717 927.874573,1443.790649 925.748413,1444.803589 
	C916.064941,1449.417236 906.489075,1454.256592 896.802551,1459.050537 
	C889.127991,1448.804199 877.750366,1446.345947 866.215454,1443.952759 
	C846.407166,1439.843384 826.364929,1441.014648 806.391113,1441.121094 
	C798.391357,1441.163940 790.398743,1442.542114 782.082458,1443.343384 
	C782.082458,1434.554199 782.408569,1425.560425 781.948669,1416.607056 
	C781.708984,1411.942505 783.710449,1408.836792 785.949707,1405.105713 
	C793.984741,1391.717407 801.297119,1377.898193 809.068970,1364.348755 
	C818.318481,1348.223145 827.823669,1332.244507 837.102051,1316.135254 
	C848.186584,1296.890259 859.147339,1277.573853 870.163574,1258.289429 
	C879.856201,1241.322144 889.501526,1224.327637 899.260437,1207.398560 
	C907.785767,1192.609497 916.437683,1177.893188 925.044067,1163.150879 
	C925.528137,1162.321655 926.106506,1161.547485 927.334778,1159.709595 
	C936.692688,1176.526855 945.662964,1192.647583 954.795166,1209.099121 
z"/>
<path fill="#5395FE" opacity="1.000000" stroke="none" 
	d="
M1300.840820,1261.691406 
	C1299.239868,1262.394409 1297.569336,1262.959473 1295.897705,1262.962646 
	C1266.932251,1263.016479 1237.966553,1263.003418 1209.000977,1263.000122 
	C1202.298584,1262.999390 1195.887085,1257.680420 1195.169556,1251.139648 
	C1195.066895,1250.203735 1197.001587,1248.100586 1197.840332,1248.178833 
	C1200.572266,1248.433472 1201.624268,1247.052734 1202.997681,1245.117432 
	C1203.815796,1243.964600 1205.848999,1243.092163 1207.340332,1243.085449 
	C1234.141357,1242.966309 1260.943237,1242.954956 1287.743774,1243.113281 
	C1289.265381,1243.122192 1291.058228,1244.515137 1292.242310,1245.733032 
	C1296.295898,1249.902832 1300.134399,1254.281738 1303.944580,1258.459839 
	C1303.453735,1258.897827 1302.112183,1260.094727 1300.840820,1261.691406 
z"/>
</svg>